# xmcd CD database file
#
# Track frame offsets:
#	150
#	6018
#	34121
#	86777
#	137576
#	171819
#	224709
#	259706
#
# Disc length: 4027 seconds
#
# Revision: 0
# Processed by: cddbd v1.5.1PL0 Copyright (c) Steve Scherf et al.
# Submitted via: CDex 1.51
#
DISCID=6b0fb908
DTITLE=Bill Bruford - (1999.01.26) Great American Music Hall, SF - Disc 1
DYEAR=1999
DGENRE=Jazz
TTITLE0=intro
TTITLE1=My Heart Declares A Holiday
TTITLE2=If Summer Had Its Ghosts
TTITLE3=Footloose And Fancy Free
TTITLE4=A Part, And Yet Apart
TTITLE5=Sarah's Still Life
TTITLE6=Some Shiver, While He Cavorts
TTITLE7=Pigalle
EXTD=YEAR: 1999
EXTT0=
EXTT1=
EXTT2=
EXTT3=
EXTT4=
EXTT5=
EXTT6=
EXTT7=
PLAYORDER=
